PathFileType	3	(X/Y/Z)	F:\ViconData\AntennenMessung\Messung1\Session1\ID19.trc
DataRate	CameraRate	NumFrames	NumMarkers	Units	OrigDataRate	OrigDataStartFrame	OrigNumFrames
120.0	120.0	4	70	mm	120.0	825	942	
Frame#	Time	Ashort			Along			Atop			A4			Bshort			Blong			Btop			B4			Cshort			Clong			Ctop			C4			Dshort			Dlong			Dtop			D4			Eshort			Elong			Etop			E4			Fshort			Flong			Ftop			F4			Gshort			Glong			Gtop			G4			Hshort			Hlong			Htop			H4			I1			I2			I3			I4			I5			WandAshort			WandAlong			WandAtop			WandA4			WandA15			WandBshort			WandB4			WandB5			WandBtop			WandBlong			WandCshort			WandClong			WandCtop			WandC4			WandC5			Acenter			Aantenna			Bcenter			Bantenna			Ccenter			Cantenna			Dcenter			Dantenna			Ecenter			Eantenna			Fcenter			Fantenna			Gcenter			Gantenna			Hcenter			Hantenna			Icenter			Iantenna			
		X1	Y1	Z1	X2	Y2	Z2	X3	Y3	Z3	X4	Y4	Z4	X5	Y5	Z5	X6	Y6	Z6	X7	Y7	Z7	X8	Y8	Z8	X9	Y9	Z9	X10	Y10	Z10	X11	Y11	Z11	X12	Y12	Z12	X13	Y13	Z13	X14	Y14	Z14	X15	Y15	Z15	X16	Y16	Z16	X17	Y17	Z17	X18	Y18	Z18	X19	Y19	Z19	X20	Y20	Z20	X21	Y21	Z21	X22	Y22	Z22	X23	Y23	Z23	X24	Y24	Z24	X25	Y25	Z25	X26	Y26	Z26	X27	Y27	Z27	X28	Y28	Z28	X29	Y29	Z29	X30	Y30	Z30	X31	Y31	Z31	X32	Y32	Z32	X33	Y33	Z33	X34	Y34	Z34	X35	Y35	Z35	X36	Y36	Z36	X37	Y37	Z37	X38	Y38	Z38	X39	Y39	Z39	X40	Y40	Z40	X41	Y41	Z41	X42	Y42	Z42	X43	Y43	Z43	X44	Y44	Z44	X45	Y45	Z45	X46	Y46	Z46	X47	Y47	Z47	X48	Y48	Z48	X49	Y49	Z49	X50	Y50	Z50	X51	Y51	Z51	X52	Y52	Z52	X53	Y53	Z53	X54	Y54	Z54	X55	Y55	Z55	X56	Y56	Z56	X57	Y57	Z57	X58	Y58	Z58	X59	Y59	Z59	X60	Y60	Z60	X61	Y61	Z61	X62	Y62	Z62	X63	Y63	Z63	X64	Y64	Z64	X65	Y65	Z65	X66	Y66	Z66	X67	Y67	Z67	X68	Y68	Z68	X69	Y69	Z69	X70	Y70	Z70	
825	6.8666667	-1038.2507	214.52298	-1644.2268	-1109.4077	204.05003	-1599.2843	-1063.7394	173.06143	-1625.7014	-1054.1713	262.25146	-1634.9476	-1352.9244	234.89981	1003.66	-1281.3546	227.17845	1052.4332	-1322.7616	193.91431	1020.9541	-1284.7557	287.8071	1052.8138	813.97546	187.68193	1209.4636	892.17303	178.4894	1179.3138	844.39307	145.57428	1198.397	860.64996	292.62335	1167.3759	1115.7117	209.8008	-1401.8203	1056.1647	194.08441	-1460.4139	1095.1477	162.45027	-1423.9211	1069.8561	238.69238	-1425.8304	-1204.5645	1685.9519	-1563.1976	-1129.188	1688.2681	-1605.9888	-1173.2235	1724.4366	-1581.9563	-1134.0854	1580.9972	-1603.8801	-1239.5989	1699.1393	1119.4839	-1309.0942	1698.3473	1071.7577	-1270.3795	1736.2533	1096.8612	-1244.6313	1593.9445	1106.4941	988.88428	1664.2133	1162.2498	957.55188	1700.3689	1183.8081	922.78125	1662.0034	1215.0525	939.79419	1659.3782	1159.9226	998.96936	1668.4474	-1579.4873	1058.7825	1670.1371	-1518.6825	1024.9114	1708.0266	-1551.1626	1059.2007	1672.1279	-1585.5012	-186.37558	163.4193	-148.51276	-189.23193	171.84825	-64.56073	-186.76852	127.32163	-106.217	-155.30389	168.09818	-111.69959	-236.12665	164.95335	-113.58904																																														-1068.7253	210.03766	-1624.9789	-1073.9362	248.68063	-1624.2241	-1321.5095	231.51056	1025.0685	-1320.2189	270.25787	1029.3091	848.07025	183.67389	1196.318	851.81152	222.43637	1194.2029	1088.8171	202.70245	-1428.2842	1082.7924	241.00989	-1432.4365	-1171.9375	1686.9543	-1581.7197	-1170.6003	1647.978	-1581.474	-1270.7819	1698.7839	1098.0687	-1271.2004	1659.8064	1099.3248	953.27478	1705.3043	1186.7507	973.07971	1733.4271	1168.3696	1026.4265	1669.2229	-1551.5747	1027.9482	1630.2549	-1551.9886	-187.67712	167.26016	-110.25783	-188.55966	206.05212	-114.18266
826	6.875	-1038.2281	214.46318	-1644.3009	-1109.3696	204.07458	-1599.3147	-1063.7214	173.09911	-1625.677	-1054.2214	262.27515	-1634.983	-1352.954	234.86412	1003.5746	-1281.3546	227.15573	1052.3622	-1322.7806	193.90674	1020.9108	-1284.7454	287.8371	1052.812	813.97656	187.72929	1209.4108	892.36072	178.50687	1179.1993	844.56451	145.41458	1198.4109	860.63354	292.65558	1167.4166	1115.719	209.81024	-1401.8275	1056.1387	194.04904	-1460.403	1095.1311	162.40794	-1423.9961	1069.8409	238.62914	-1425.7991	-1204.6321	1686.0072	-1563.0443	-1129.1747	1688.3131	-1606.0414	-1173.2253	1724.4128	-1581.933	-1134.0955	1580.9852	-1603.8859	-1239.5955	1699.1335	1119.4717	-1309.0878	1698.3496	1071.7628	-1270.3717	1736.2338	1096.8418	-1244.6904	1593.7628	1106.3965	988.90619	1664.2544	1162.2303	957.44977	1700.3383	1183.8242	922.95819	1661.9735	1215.1012	939.78278	1659.4181	1159.8146	998.95795	1668.4518	-1579.4933	1058.6929	1669.9736	-1518.6979	1024.9119	1708.0322	-1551.1583	1059.1969	1672.1364	-1585.4926	-186.32651	163.2711	-148.55807	-189.23419	171.80243	-64.527351	-186.69109	127.80083	-106.94646	-155.3073	168.08218	-111.70645	-236.10931	164.95311	-113.53651																																														-1068.7028	210.01303	-1625.0303	-1073.9178	248.65688	-1624.3533	-1321.5183	231.47974	1024.9948	-1320.2164	270.22977	1029.2068	848.2215	183.70015	1196.2118	851.92383	222.46011	1193.9856	1088.7505	202.6761	-1428.3411	1082.6813	240.97862	-1432.474	-1171.9354	1687.0063	-1581.6753	-1170.5914	1648.0304	-1581.407	-1270.7848	1698.7816	1098.059	-1271.2147	1659.8046	1099.3257	953.16071	1705.2582	1186.7684	972.82379	1733.4382	1168.3225	1026.3584	1669.1498	-1551.6062	1027.8082	1630.1793	-1552.0552	-187.62723	167.08752	-110.96748	-188.55145	205.87395	-114.9373
827	6.8833333	-1038.2555	214.49557	-1644.2223	-1109.4252	203.96338	-1599.2413	-1064.0033	172.57254	-1625.3488	-1054.1693	262.23944	-1634.9686	-1352.9851	234.73457	1003.4969	-1281.3171	227.18495	1052.3856	-1322.7827	193.87152	1020.9502	-1284.7516	287.8652	1052.8899	813.94537	187.74583	1209.4703	892.35388	178.48994	1179.2693	844.50458	145.32401	1198.3866	860.63025	292.62808	1167.5	1115.7169	209.81851	-1401.8182	1056.1066	193.94524	-1460.4089	1095.1029	162.36493	-1423.9647	1069.8306	238.64339	-1425.8195	-1204.6279	1686.0065	-1563.0508	-1129.1831	1688.2743	-1606.0304	-1173.2244	1724.4305	-1581.953	-1134.0729	1580.9889	-1603.8892	-1239.6621	1699.2037	1119.4928	-1308.4623	1698.6777	1069.3989	-1270.4003	1736.2747	1096.8678	-1244.7653	1593.611	1106.5135	988.92908	1664.27	1162.2295	957.4754	1700.3503	1183.8586	922.73181	1662.0317	1215.0798	939.81042	1659.3857	1159.8948	998.95648	1668.4342	-1579.4613	1058.6678	1669.9653	-1518.6869	1024.9172	1708.0198	-1551.1538	1059.1902	1672.1357	-1585.4943	-186.38702	163.41255	-148.49532	-189.24226	171.82472	-64.544365	-186.80125	127.31732	-106.28992	-155.32108	168.09195	-111.69572	-236.14171	164.94666	-113.58062																																														-1069.1277	209.92688	-1624.7102	-1074.4274	248.55946	-1624.0498	-1321.5493	231.42307	1024.9408	-1320.2761	270.18402	1029.0603	848.21912	183.69991	1196.2689	851.97083	222.46008	1194.1301	1088.7075	202.62633	-1428.3656	1082.6245	240.92091	-1432.5515	-1171.9391	1686.9889	-1581.6727	-1170.6013	1648.0129	-1581.3812	-1270.3301	1698.9692	1097.1631	-1270.2567	1659.9706	1097.4717	953.07977	1705.3923	1186.8812	972.8161	1733.5913	1168.5427	1026.3492	1669.1366	-1551.5809	1027.7842	1630.1653	-1552.0092	-187.68536	167.23784	-110.32016	-188.54456	206.03117	-114.23661
828	6.8916667	-1038.246	214.47275	-1644.2112	-1109.3563	204.07394	-1599.3209	-1063.939	172.56946	-1625.4175	-1054.1785	262.2132	-1634.9348	-1353.0529	234.80563	1003.7302	-1281.3325	227.1488	1052.407	-1322.7322	193.89079	1020.8865	-1284.6039	287.87833	1052.675	813.86914	187.7505	1209.4685	892.19531	178.51201	1179.2548	844.42499	145.42041	1198.3097	860.69525	292.61447	1167.6808	1115.6812	209.5601	-1401.6545	1056.1198	193.98541	-1460.4298	1095.1924	162.49118	-1423.9868	1069.842	238.65558	-1425.8129	-1204.6384	1686.0128	-1563.0591	-1129.1835	1688.2898	-1606.021	-1173.2368	1724.4377	-1581.9518	-1134.0819	1580.9777	-1603.8765	-1239.6436	1699.1655	1119.4852	-1308.3448	1699.1184	1068.2081	-1270.3722	1736.2427	1096.8514	-1244.7599	1593.6023	1106.4133	988.89575	1664.2396	1162.2125	957.42627	1700.3175	1183.8658	922.72345	1661.9968	1214.9329	939.78613	1659.4346	1159.8783	998.95337	1668.4446	-1579.4781	1058.6609	1669.963	-1518.6907	1024.9219	1708.0361	-1551.1531	1059.1976	1672.1292	-1585.4946	-186.3862	163.42146	-148.51096	-189.22224	171.82449	-64.541977	-186.84695	127.26443	-106.28298	-155.30229	168.10446	-111.72409	-236.09856	164.99245	-113.55985																																														-1069.0122	209.97365	-1624.7889	-1074.2529	248.61444	-1624.14	-1321.5775	231.44534	1025.0925	-1320.3864	270.18494	1029.4313	848.14514	183.70766	1196.2467	851.91144	222.46915	1194.1583	1088.8298	202.53879	-1428.1512	1082.7427	240.85419	-1432.1357	-1171.948	1686.9991	-1581.6721	-1170.6061	1648.0234	-1581.381	-1270.2112	1699.1445	1096.6702	-1270.0422	1660.1453	1096.4795	953.06891	1705.3127	1186.864	972.83472	1733.5271	1168.5812	1026.3508	1669.1412	-1551.585	1027.7826	1630.17	-1552.0179	-187.67636	167.24417	-110.31188	-188.4812	206.03937	-114.22141
